<?xml version="1.0" standalone="no"?>
<!DOCTYPE svg PUBLIC "-//W3C//DTD SVG 20010904//EN"
 "http://www.w3.org/TR/2001/REC-SVG-20010904/DTD/svg10.dtd">
<svg version="1.0" xmlns="http://www.w3.org/2000/svg"
 width="740.000000pt" height="493.000000pt" viewBox="0 0 740.000000 493.000000"
 preserveAspectRatio="xMidYMid meet">

<g transform="translate(0.000000,493.000000) scale(0.100000,-0.100000)"
fill="#000000" stroke="none">
<path d="M3710 3961 l-45 -39 25 -10 c26 -10 132 -124 143 -154 3 -10 13 -18
22 -18 14 0 14 2 0 23 -8 13 -18 50 -21 84 -6 55 -9 61 -40 78 -24 13 -34 26
-36 46 l-3 29 -45 -39z"/>
<path d="M3568 3923 c-9 -10 -23 -34 -33 -53 -41 -81 -171 -242 -235 -289 -58
-44 -69 -57 -99 -127 -47 -108 -152 -282 -193 -320 -18 -17 -60 -52 -93 -78
-33 -26 -77 -71 -98 -99 l-38 -52 62 -57 62 -57 -38 -43 c-21 -24 -42 -44 -45
-46 -3 -1 -18 10 -32 25 -19 20 -31 50 -42 107 -9 44 -17 81 -19 82 -1 2 -27
-12 -56 -30 -61 -38 -135 -53 -159 -34 -19 15 -14 6 29 -58 27 -39 79 -157 79
-178 0 -6 -25 14 -56 44 l-55 55 35 -77 c20 -43 52 -112 71 -153 19 -41 32
-75 29 -75 -3 0 -49 37 -102 82 l-96 83 29 -50 c84 -145 112 -184 162 -230
l55 -50 19 -140 c10 -77 21 -155 24 -172 3 -18 2 -33 -2 -33 -13 0 -217 171
-226 189 -4 9 -30 102 -58 206 l-51 190 -11 273 -10 273 -161 -160 c-157 -156
-162 -161 -203 -161 -34 0 -46 -5 -65 -29 -89 -110 -297 -331 -333 -353 -34
-21 -58 -28 -111 -30 l-68 -3 -124 -145 c-67 -80 -160 -203 -205 -275 l-83
-130 -144 -98 c-129 -86 -148 -103 -169 -146 -22 -45 -30 -51 -93 -77 -37 -15
-66 -30 -62 -33 3 -3 51 -10 108 -16 86 -9 115 -8 177 5 l74 17 67 -36 67 -35
102 29 c93 26 105 27 128 14 14 -8 45 -26 68 -39 l42 -23 76 22 76 22 87 -40
87 -40 223 59 224 59 451 -220 c248 -120 456 -219 462 -219 7 0 169 63 361
139 l349 140 57 -57 58 -56 88 43 88 43 261 -57 262 -57 263 80 c288 88 610
167 843 206 140 24 175 35 540 172 215 80 440 164 500 186 61 22 114 44 118
48 5 4 -142 118 -326 253 -281 207 -341 247 -373 249 -33 2 -45 11 -112 90
-55 65 -81 88 -99 88 -13 0 -52 18 -87 40 -46 29 -74 40 -102 40 -36 0 -48 8
-134 88 -92 86 -94 90 -82 116 18 41 16 50 -30 105 -38 44 -49 51 -90 57 -31
4 -48 11 -48 21 0 7 -11 18 -25 23 -40 15 -151 255 -169 366 -7 37 -12 43 -58
65 -27 13 -65 41 -82 62 l-33 39 -50 -53 c-27 -30 -67 -73 -88 -97 -22 -24
-67 -58 -102 -75 -54 -28 -72 -44 -128 -121 l-64 -89 37 -69 c33 -61 50 -78
156 -160 65 -50 126 -103 134 -118 9 -15 30 -35 48 -45 23 -12 40 -34 58 -74
21 -48 34 -62 75 -84 45 -25 185 -156 176 -166 -2 -2 -45 18 -95 43 -49 26
-90 45 -90 43 0 -3 7 -21 15 -40 21 -51 19 -53 -17 -25 -18 14 -45 28 -61 32
l-27 7 42 -83 c24 -46 45 -87 47 -93 13 -31 -170 159 -201 210 -21 33 -49 68
-63 78 -25 18 -25 18 -25 -3 0 -18 -10 -11 -52 36 -144 159 -190 203 -221 210
-57 12 -122 69 -167 147 -55 93 -116 157 -150 157 -14 0 -42 12 -61 26 -68 51
-75 51 -45 0 15 -25 24 -46 21 -46 -4 0 -27 14 -52 31 l-46 32 7 -28 c8 -33 3
-32 -92 21 -55 31 -61 38 -56 60 8 30 -1 68 -21 88 -11 11 -13 21 -5 40 7 20
6 24 -5 19 -11 -4 -15 3 -15 26 0 21 -5 31 -15 31 -8 0 -15 5 -15 10 0 6 5 10
10 10 6 0 10 24 10 54 0 54 0 54 -51 91 -72 52 -79 53 -79 17 0 -19 -10 -42
-25 -59 l-25 -28 6 55 c4 30 13 67 20 82 16 31 2 47 -22 27 -14 -11 -20 -8
-45 21 -53 66 -54 70 -26 154 14 43 21 76 15 76 -6 0 -9 17 -6 40 2 22 3 40 2
40 0 0 -8 -8 -16 -17z m-56 -350 c20 -21 40 -51 44 -68 3 -16 14 -39 24 -50
10 -11 21 -42 25 -70 4 -27 16 -62 26 -77 15 -21 18 -36 13 -67 -8 -48 -17
-52 -34 -12 -6 16 -22 39 -36 52 -21 19 -24 20 -30 5 -3 -9 -4 -30 -2 -46 5
-36 4 -37 -38 -5 l-32 25 -19 -45 c-10 -25 -21 -45 -25 -45 -14 0 -8 41 12 80
27 54 25 79 -11 129 -28 37 -31 48 -26 86 6 40 54 145 67 145 3 0 22 -17 42
-37z m267 -362 c-9 -26 -8 -39 10 -76 12 -25 21 -49 21 -54 0 -5 32 -41 70
-80 39 -39 70 -79 70 -89 0 -9 38 -55 85 -102 47 -47 85 -88 85 -92 0 -6 -68
31 -224 124 -27 16 -55 27 -63 24 -7 -3 -34 10 -59 29 -25 19 -49 35 -54 35
-5 0 -15 14 -24 31 -15 29 -14 34 15 90 22 44 29 72 28 104 -2 35 2 50 21 70
29 31 33 28 19 -14z m1411 -237 c0 -9 -82 -105 -86 -101 -7 6 18 71 34 90 14
16 52 24 52 11z m-1891 -232 c387 -286 479 -350 593 -410 114 -60 120 -62 192
-62 l75 0 241 -186 c132 -102 240 -188 240 -190 0 -5 -23 10 -162 100 -48 31
-90 56 -94 56 -3 0 8 -24 25 -54 17 -29 31 -56 31 -60 0 -4 -67 52 -150 124
-86 76 -163 135 -182 141 -18 5 -61 7 -94 3 l-61 -6 33 -86 c19 -47 32 -87 30
-89 -2 -2 -57 35 -122 82 -87 63 -170 139 -307 278 l-188 192 5 -46 c3 -26 34
-122 70 -215 36 -93 64 -170 62 -171 -1 -2 -28 20 -59 48 -31 28 -57 48 -57
44 0 -16 77 -143 107 -178 32 -35 33 -41 33 -118 0 -61 -3 -78 -12 -73 -50 29
-208 148 -208 156 0 5 10 43 22 84 20 72 21 77 5 168 l-15 95 -126 153 -126
153 0 103 c0 56 3 102 6 102 4 0 90 -62 193 -138z m2203 18 c-18 -42 -32 -52
-32 -23 0 13 36 63 46 63 1 0 -5 -18 -14 -40z m25 -522 c39 -62 70 -115 67
-117 -2 -2 -26 17 -53 42 -28 26 -54 47 -59 47 -5 0 -17 15 -27 34 -11 21 -28
36 -43 39 -21 4 -23 2 -18 -19 5 -20 3 -24 -16 -23 -13 1 -31 -2 -42 -6 -18
-8 -18 -7 -1 18 9 15 15 34 11 42 -4 12 6 21 37 35 23 11 49 20 57 20 8 0 47
-51 87 -112z m282 -194 c50 -30 166 -144 146 -144 -19 0 -188 100 -181 107 2
2 15 -1 28 -7 15 -8 8 4 -22 34 -24 25 -41 46 -38 46 4 0 34 -16 67 -36z"/>
<path d="M3879 3601 c20 -36 12 -43 -25 -20 l-36 22 25 -50 c14 -27 42 -62 62
-78 24 -18 47 -50 65 -89 22 -50 46 -80 126 -154 l99 -92 3 86 3 86 -43 36
c-24 19 -68 62 -98 96 -89 97 -147 154 -170 166 -20 11 -21 10 -11 -9z"/>
</g>
</svg>
